# xmcd
#
# Track frame offsets:
#	150
#	12409
#	24005
#	36762
#	48155
#	59750
#	70102
#	83035
#	97217
#	108777
#	122900
#	137707
#	150270
#	157737
#	171565
#
# Disc length: 2433 seconds
#
# Revision: 0
# Processed by: cddbd v1.5PL3 Copyright (c) Steve Scherf et al.
# Submitted via: dBpowerAMP V4.0
#
DISCID=b9097f0f
DTITLE=Ray Charles - Blues
DYEAR=1900
DGENRE=Blues
TTITLE0=Honey, Honey
TTITLE1=What Have I Done
TTITLE2=You'll Always Miss The Water
TTITLE3=She's on The Ball
TTITLE4=How Long
TTITLE5=Ain't That Fine
TTITLE6=Don't Put All your Dreams in Your Basket
TTITLE7=Kissa Me Baby
TTITLE8=Guitar Blues
TTITLE9=Walkin' And Talkin'
TTITLE10=I'm Wonderin' And Wonderin'
TTITLE11=Lonely Boy
TTITLE12=Ray's Blues
TTITLE13=Late In The Evening
TTITLE14=I'll Do Anything But Work
EXTD=
EXTT0=
EXTT1=
EXTT2=
EXTT3=
EXTT4=
EXTT5=
EXTT6=
EXTT7=
EXTT8=
EXTT9=
EXTT10=
EXTT11=
EXTT12=
EXTT13=
EXTT14=
PLAYORDER=
